:FULLY-SPECIFIED
:FORCE-ALL-JOINTS-BE-3DOF
:DEGREES
102
root -2.86168 16.5075 -36.2275 2.72511 0.229313 -2.40186
lfemur -20.9066 5.80271 -8.93686
ltibia 44.5442 -0 0
lfoot -21.5755 0.075916 -0.00129668
ltoes -8.09417 0 0
rfemur -21.3948 -5.77613 13.9598
rtibia 47.2322 -0 0
rfoot -25.5069 1.5592 -0.000497749
rtoes -6.61349 0 0
lowerback 8.63142 1.99251 -1.66999
upperback -3.41161 2.56875 1.23542
thorax -8.59993 1.38213 1.83685
lowerneck -2.61297 -3.85769 -6.62598
upperneck 5.28235 -5.19155 6.04226
head 2.54494 -2.5675 2.99037
lclavicle -6.19649e-16 1.80894e-14 0
lhumerus -26.5743 -3.95692 89.4361
lradius 24.9835 -0 0
lwrist -30.5488 0 0
lhand -28.667 30.2857 0.000341989
lfingers 7.12502 -0 0
lthumb -2.03009 60.2557 0.000333075
rclavicle -6.19649e-16 1.80894e-14 0
rhumerus -32.5203 2.91773 -80.4449
rradius 30.6219 -0 0
rwrist 2.60102 0 0
rhand -20.0941 -27.0432 -0.000435623
rfingers 7.12502 -0 0
rthumb 6.24894 -56.9309 -0.000406512
103
root -2.85965 16.5059 -36.2252 2.76197 0.238684 -2.41328
lfemur -20.962 5.80304 -8.93312
ltibia 44.585 -0 0
lfoot -21.6021 0.0892516 -0.00130289
ltoes -8.13364 0 0
rfemur -21.4368 -5.79709 13.9662
rtibia 47.2546 -0 0
rfoot -25.5254 1.56658 -0.00050013
rtoes -6.64076 0 0
lowerback 8.57633 1.99082 -1.67771
upperback -3.43029 2.56647 1.23669
thorax -8.58834 1.3817 1.8443
lowerneck -2.6142 -3.85858 -6.62373
upperneck 5.31435 -5.19407 6.04402
head 2.55609 -2.5687 2.9905
lclavicle -6.19649e-16 1.80894e-14 0
lhumerus -26.5738 -3.92922 89.4239
lradius 24.9803 -0 0
lwrist -30.5572 0 0
lhand -28.6578 30.2958 0.000343626
lfingers 7.12502 -0 0
lthumb -2.02118 60.2659 0.000334669
rclavicle -6.19649e-16 1.80894e-14 0
rhumerus -32.5272 2.89738 -80.4426
rradius 30.6166 -0 0
rwrist 2.60641 0 0
rhand -20.0823 -27.0533 -0.000437708
rfingers 7.12502 -0 0
rthumb 6.26034 -56.9407 -0.000408457
104
root -2.85761 16.5042 -36.223 2.79882 0.248063 -2.42469
lfemur -21.0175 5.80338 -8.92937
ltibia 44.6258 -0 0
lfoot -21.6288 0.102587 -0.00130289
ltoes -8.17311 0 0
rfemur -21.4788 -5.81804 13.9727
rtibia 47.277 -0 0
rfoot -25.5439 1.57395 -0.00050013
rtoes -6.66802 0 0
lowerback 8.52125 1.98912 -1.68542
upperback -3.44897 2.56418 1.23795
thorax -8.57676 1.38126 1.85175
lowerneck -2.61543 -3.85947 -6.62148
upperneck 5.34634 -5.1966 6.04578
head 2.56724 -2.5699 2.99063
lclavicle -6.19649e-16 1.80894e-14 0
lhumerus -26.5734 -3.90152 89.4116
lradius 24.977 -0 0
lwrist -30.5656 0 0
lhand -28.6485 30.306 0.000343626
lfingers 7.12502 -0 0
lthumb -2.01227 60.2762 0.000334669
rclavicle -6.19649e-16 1.80894e-14 0
rhumerus -32.534 2.87704 -80.4404
rradius 30.6114 -0 0
rwrist 2.61181 0 0
rhand -20.0705 -27.0635 -0.000437708
rfingers 7.12502 -0 0
rthumb 6.27174 -56.9505 -0.000408457
105
root -2.85558 16.5026 -36.2207 2.83567 0.25745 -2.43609
lfemur -21.0729 5.80372 -8.92562
ltibia 44.6666 -0 0
lfoot -21.6554 0.115923 -0.00129668
ltoes -8.21258 0 0
rfemur -21.5208 -5.83899 13.9792
rtibia 47.2994 -0 0
rfoot -25.5624 1.58133 -0.000497749
rtoes -6.69529 0 0
lowerback 8.46616 1.98741 -1.69313
upperback -3.46765 2.5619 1.23922
thorax -8.56517 1.38083 1.8592
lowerneck -2.61665 -3.86036 -6.61922
upperneck 5.37833 -5.19914 6.04754
head 2.57839 -2.5711 2.99076
lclavicle -6.19649e-16 1.80894e-14 0
lhumerus -26.5729 -3.87382 89.3993
lradius 24.9738 -0 0
lwrist -30.574 0 0
lhand -28.6393 30.3161 0.000341989
lfingers 7.12502 -0 0
lthumb -2.00336 60.2864 0.000333075
rclavicle -6.19649e-16 1.80894e-14 0
rhumerus -32.5408 2.85669 -80.4381
rradius 30.6061 -0 0
rwrist 2.6172 0 0
rhand -20.0587 -27.0736 -0.000435623
rfingers 7.12502 -0 0
rthumb 6.28314 -56.9603 -0.000406512
106
root -2.85355 16.501 -36.2184 2.87252 0.266843 -2.44749
lfemur -21.1284 5.80406 -8.92187
ltibia 44.7074 -0 0
lfoot -21.6821 0.129259 -0.00128427
ltoes -8.25206 0 0
rfemur -21.5628 -5.85994 13.9857
rtibia 47.3217 -0 0
rfoot -25.5809 1.58871 -0.000492986
rtoes -6.72255 0 0
lowerback 8.41107 1.9857 -1.70084
upperback -3.48633 2.55962 1.24048
thorax -8.55359 1.38039 1.86664
lowerneck -2.61788 -3.86125 -6.61697
upperneck 5.41033 -5.20167 6.04929
head 2.58954 -2.5723 2.99088
lclavicle -6.19649e-16 1.80894e-14 0
lhumerus -26.5725 -3.84612 89.387
lradius 24.9706 -0 0
lwrist -30.5824 0 0
lhand -28.6301 30.3263 0.000338717
lfingers 7.12502 -0 0
lthumb -1.99445 60.2967 0.000329888
rclavicle -6.19649e-16 1.80894e-14 0
rhumerus -32.5476 2.83634 -80.4359
rradius 30.6009 -0 0
rwrist 2.62259 0 0
rhand -20.0469 -27.0837 -0.000431455
rfingers 7.12502 -0 0
rthumb 6.29454 -56.97 -0.000402622
107
root -2.85152 16.4994 -36.2161 2.90937 0.276244 -2.45888
lfemur -21.1838 5.80441 -8.91813
ltibia 44.7483 -0 0
lfoot -21.7087 0.142594 -0.00126566
ltoes -8.29153 0 0
rfemur -21.6049 -5.88088 13.9922
rtibia 47.3441 -0 0
rfoot -25.5994 1.59609 -0.000485841
rtoes -6.74982 0 0
lowerback 8.35598 1.98398 -1.70855
upperback -3.50502 2.55733 1.24175
thorax -8.542 1.37995 1.87409
lowerneck -2.6191 -3.86215 -6.61472
upperneck 5.44232 -5.2042 6.05104
head 2.60069 -2.57349 2.99101
lclavicle -6.19649e-16 1.80894e-14 0
lhumerus -26.572 -3.81841 89.3747
lradius 24.9674 -0 0
lwrist -30.5909 0 0
lhand -28.6209 30.3365 0.000333808
lfingers 7.12502 -0 0
lthumb -1.98553 60.3069 0.000325107
rclavicle -6.19649e-16 1.80894e-14 0
rhumerus -32.5544 2.816 -80.4336
rradius 30.5956 -0 0
rwrist 2.62798 0 0
rhand -20.0351 -27.0938 -0.000425202
rfingers 7.12502 -0 0
rthumb 6.30594 -56.9798 -0.000396787
108
root -2.84949 16.4978 -36.2139 2.94621 0.285652 -2.47027
lfemur -21.2393 5.80476 -8.91438
ltibia 44.7891 -0 0
lfoot -21.7354 0.15593 -0.00124084
ltoes -8.331 0 0
rfemur -21.6469 -5.90181 13.9988
rtibia 47.3665 -0 0
rfoot -25.6179 1.60347 -0.000476314
rtoes -6.77708 0 0
lowerback 8.30089 1.98225 -1.71626
upperback -3.5237 2.55505 1.24302
thorax -8.53042 1.37951 1.88154
lowerneck -2.62033 -3.86304 -6.61246
upperneck 5.47432 -5.20673 6.0528
head 2.61184 -2.57469 2.99114
lclavicle -6.19649e-16 1.80894e-14 0
lhumerus -26.5716 -3.79071 89.3624
lradius 24.9642 -0 0
lwrist -30.5993 0 0
lhand -28.6116 30.3466 0.000327262
lfingers 7.12502 -0 0
lthumb -1.97662 60.3172 0.000318732
rclavicle -6.19649e-16 1.80894e-14 0
rhumerus -32.5612 2.79565 -80.4314
rradius 30.5904 -0 0
rwrist 2.63337 0 0
rhand -20.0233 -27.1039 -0.000416864
rfingers 7.12502 -0 0
rthumb 6.31734 -56.9896 -0.000389007
109
root -2.84746 16.4962 -36.2116 2.98306 0.295068 -2.48165
lfemur -21.2948 5.80511 -8.91063
ltibia 44.8299 -0 0
lfoot -21.7621 0.169266 -0.00120982
ltoes -8.37047 0 0
rfemur -21.6889 -5.92274 14.0053
rtibia 47.3888 -0 0
rfoot -25.6363 1.61085 -0.000464407
rtoes -6.80434 0 0
lowerback 8.24581 1.98051 -1.72397
upperback -3.54238 2.55277 1.24428
thorax -8.51883 1.37907 1.88899
lowerneck -2.62156 -3.86393 -6.61021
upperneck 5.50631 -5.20927 6.05455
head 2.62299 -2.57589 2.99127
lclavicle -6.19649e-16 1.80894e-14 0
lhumerus -26.5712 -3.76301 89.3502
lradius 24.9609 -0 0
lwrist -30.6077 0 0
lhand -28.6024 30.3568 0.000319081
lfingers 7.12502 -0 0
lthumb -1.96771 60.3274 0.000310764
rclavicle -6.19649e-16 1.80894e-14 0
rhumerus -32.568 2.7753 -80.4291
rradius 30.5851 -0 0
rwrist 2.63876 0 0
rhand -20.0114 -27.114 -0.000406443
rfingers 7.12502 -0 0
rthumb 6.32874 -56.9994 -0.000379281
110
root -2.84543 16.4946 -36.2093 3.0199 0.304491 -2.49302
lfemur -21.3502 5.80547 -8.90689
ltibia 44.8707 -0 0
lfoot -21.7887 0.182601 -0.0011726
ltoes -8.40995 0 0
rfemur -21.7309 -5.94367 14.0119
rtibia 47.4112 -0 0
rfoot -25.6548 1.61823 -0.000450117
rtoes -6.83161 0 0
lowerback 8.19072 1.97876 -1.73167
upperback -3.56106 2.55049 1.24555
thorax -8.50725 1.37863 1.89644
lowerneck -2.62278 -3.86482 -6.60796
upperneck 5.5383 -5.21181 6.05629
head 2.63415 -2.57709 2.99139
lclavicle -6.19649e-16 1.80894e-14 0
lhumerus -26.5707 -3.73531 89.3379
lradius 24.9577 -0 0
lwrist -30.6161 0 0
lhand -28.5932 30.3669 0.000309263
lfingers 7.12502 -0 0
lthumb -1.9588 60.3377 0.000301202
rclavicle -6.19649e-16 1.80894e-14 0
rhumerus -32.5748 2.75496 -80.4268
rradius 30.5799 -0 0
rwrist 2.64415 0 0
rhand -19.9996 -27.1241 -0.000393937
rfingers 7.12502 -0 0
rthumb 6.34014 -57.0091 -0.000367611
111
root -2.8434 16.493 -36.2071 3.05674 0.313921 -2.50439
lfemur -21.4057 5.80583 -8.90314
ltibia 44.9115 -0 0
lfoot -21.8154 0.195937 -0.00112917
ltoes -8.44942 0 0
rfemur -21.7729 -5.96459 14.0185
rtibia 47.4336 -0 0
rfoot -25.6733 1.62561 -0.000433446
rtoes -6.85887 0 0
lowerback 8.13563 1.97701 -1.73937
upperback -3.57974 2.54821 1.24682
thorax -8.49566 1.37818 1.90389
lowerneck -2.62401 -3.86571 -6.6057
upperneck 5.5703 -5.21434 6.05804
head 2.6453 -2.57829 2.99152
lclavicle -6.19649e-16 1.80894e-14 0
lhumerus -26.5703 -3.7076 89.3256
lradius 24.9545 -0 0
lwrist -30.6245 0 0
lhand -28.5839 30.3771 0.000297809
lfingers 7.12502 -0 0
lthumb -1.94989 60.3479 0.000290046
rclavicle -6.19649e-16 1.80894e-14 0
rhumerus -32.5816 2.73461 -80.4246
rradius 30.5746 -0 0
rwrist 2.64954 0 0
rhand -19.9878 -27.1342 -0.000379347
rfingers 7.12502 -0 0
rthumb 6.35154 -57.0189 -0.000353996
112
root -2.84137 16.4914 -36.2048 3.09358 0.323359 -2.51575
lfemur -21.4611 5.8062 -8.8994
ltibia 44.9524 -0 0
lfoot -21.842 0.209273 -0.00107953
ltoes -8.48889 0 0
rfemur -21.815 -5.98551 14.0251
rtibia 47.456 -0 0
rfoot -25.6918 1.63299 -0.000414393
rtoes -6.88614 0 0
lowerback 8.08055 1.97525 -1.74707
upperback -3.59842 2.54593 1.24809
thorax -8.48408 1.37773 1.91133
lowerneck -2.62524 -3.8666 -6.60345
upperneck 5.60229 -5.21688 6.05979
head 2.65645 -2.57949 2.99165
lclavicle -6.19649e-16 1.80894e-14 0
lhumerus -26.5699 -3.6799 89.3133
lradius 24.9513 -0 0
lwrist -30.6329 0 0
lhand -28.5747 30.3873 0.000284718
lfingers 7.12502 -0 0
lthumb -1.94098 60.3581 0.000277297
rclavicle -6.19649e-16 1.80894e-14 0
rhumerus -32.5885 2.71427 -80.4223
rradius 30.5694 -0 0
rwrist 2.65493 0 0
rhand -19.976 -27.1444 -0.000362672
rfingers 7.12502 -0 0
rthumb 6.36294 -57.0287 -0.000338436
